<svg xmlns="http://www.w3.org/2000/svg" viewBox="0 0 347.52 397.79"><g fill="none" stroke="#1c1c1c" stroke-width="1.2" stroke-linecap="round"><circle cx="23.26" cy="178.90" r="1.75"/><circle cx="23.26" cy="218.90" r="1.75"/><circle cx="115.83" cy="58.56" r="1.75"/><circle cx="81.19" cy="78.56" r="1.75"/><circle cx="266.33" cy="78.56" r="1.75"/><circle cx="231.69" cy="58.56" r="1.75"/><circle cx="324.26" cy="218.90" r="1.75"/><circle cx="324.26" cy="178.90" r="1.75"/><circle cx="231.69" cy="339.23" r="1.75"/><circle cx="266.33" cy="319.23" r="1.75"/><circle cx="115.83" cy="339.23" r="1.75"/><circle cx="81.19" cy="319.23" r="1.75"/><path d="M 125.61 273.15 A 88.50 88.50 0 1 0 85.38 203.47"/><line x1="125.61" y1="273.15" x2="119.63" y2="274.28"/><line x1="119.63" y1="274.28" x2="115.21" y2="280.44"/><line x1="115.21" y1="280.44" x2="109.45" y2="281.27"/><path d="M 70.27 213.40 A 104.50 104.50 0 0 0 109.45 281.27"/><line x1="70.27" y1="213.40" x2="73.87" y2="208.83"/><line x1="81.41" y1="208.08" x2="73.87" y2="208.83"/><line x1="81.41" y1="208.08" x2="85.38" y2="203.47"/><circle cx="22.20" cy="111.40" r="2.75"/><circle cx="173.76" cy="23.90" r="2.75"/><circle cx="325.31" cy="111.40" r="2.75"/><circle cx="325.31" cy="286.40" r="2.75"/><circle cx="173.76" cy="373.90" r="2.75"/><circle cx="22.20" cy="286.40" r="2.75"/><line x1="11.26" y1="105.08" x2="11.26" y2="292.72"/><line x1="11.26" y1="292.72" x2="173.76" y2="386.54"/><line x1="173.76" y1="386.54" x2="336.26" y2="292.72"/><line x1="336.26" y1="292.72" x2="336.26" y2="105.08"/><line x1="336.26" y1="105.08" x2="173.76" y2="11.26"/><line x1="173.76" y1="11.26" x2="11.26" y2="105.08"/></g></svg>