<svg xmlns="http://www.w3.org/2000/svg" viewBox="0 0 718.62 816.14"><g fill="none" stroke="#1c1c1c" stroke-width="1.2" stroke-linecap="round"><line x1="260.88" y1="275.59" x2="293.79" y2="256.59"/><path d="M 254.05 273.76 A 5.00 5.00 0 0 0 260.88 275.59"/><line x1="250.05" y1="266.83" x2="254.05" y2="273.76"/><path d="M 251.88 260.00 A 5.00 5.00 0 0 0 250.05 266.83"/><line x1="284.79" y1="241.00" x2="251.88" y2="260.00"/><path d="M 291.62 242.83 A 5.00 5.00 0 0 0 284.79 241.00"/><line x1="295.62" y1="249.76" x2="291.62" y2="242.83"/><path d="M 293.79 256.59 A 5.00 5.00 0 0 0 295.62 249.76"/><line x1="293.79" y1="559.56" x2="260.88" y2="540.56"/><path d="M 295.62 566.39 A 5.00 5.00 0 0 0 293.79 559.56"/><line x1="291.62" y1="573.32" x2="295.62" y2="566.39"/><path d="M 284.79 575.15 A 5.00 5.00 0 0 0 291.62 573.32"/><line x1="251.88" y1="556.15" x2="284.79" y2="575.15"/><path d="M 250.05 549.32 A 5.00 5.00 0 0 0 251.88 556.15"/><line x1="254.05" y1="542.39" x2="250.05" y2="549.32"/><path d="M 260.88 540.56 A 5.00 5.00 0 0 0 254.05 542.39"/><line x1="192.46" y1="181.09" x2="246.16" y2="150.09"/><path d="M 185.63 179.26 A 5.00 5.00 0 0 0 192.46 181.09"/><line x1="185.63" y1="179.26" x2="179.63" y2="168.86"/><path d="M 181.46 162.03 A 5.00 5.00 0 0 0 179.63 168.86"/><line x1="181.46" y1="162.03" x2="235.16" y2="131.03"/><path d="M 241.99 132.86 A 5.00 5.00 0 0 0 235.16 131.03"/><line x1="247.99" y1="143.26" x2="241.99" y2="132.86"/><path d="M 246.16 150.09 A 5.00 5.00 0 0 0 247.99 143.26"/><line x1="246.16" y1="666.06" x2="192.46" y2="635.06"/><path d="M 247.99 672.89 A 5.00 5.00 0 0 0 246.16 666.06"/><line x1="247.99" y1="672.89" x2="241.99" y2="683.28"/><path d="M 235.16 685.11 A 5.00 5.00 0 0 0 241.99 683.28"/><line x1="235.16" y1="685.11" x2="181.46" y2="654.11"/><path d="M 179.63 647.28 A 5.00 5.00 0 0 0 181.46 654.11"/><line x1="185.63" y1="636.89" x2="179.63" y2="647.28"/><path d="M 192.46 635.06 A 5.00 5.00 0 0 0 185.63 636.89"/><circle cx="214.31" cy="408.07" r="2.75"/><circle cx="149.31" cy="408.07" r="2.75"/><circle cx="179.31" cy="408.07" r="2.75"/><circle cx="391.23" cy="197.42" r="2.75"/><circle cx="327.70" cy="84.65" r="2.75"/><circle cx="557.70" cy="330.39" r="2.75"/><circle cx="623.60" cy="218.99" r="2.75"/><circle cx="525.78" cy="541.04" r="2.75"/><circle cx="655.21" cy="542.41" r="2.75"/><circle cx="327.39" cy="618.73" r="2.75"/><circle cx="390.92" cy="731.50" r="2.75"/><circle cx="160.92" cy="485.76" r="2.75"/><circle cx="95.02" cy="597.16" r="2.75"/><circle cx="63.41" cy="273.74" r="2.75"/><circle cx="192.84" cy="275.10" r="2.75"/><circle cx="359.31" cy="408.07" r="99.95"/><line x1="23.10" y1="226.09" x2="23.10" y2="590.06"/><path d="M 23.10 590.06 A 21.00 21.00 0 0 0 33.60 608.25"/><line x1="33.60" y1="608.25" x2="348.81" y2="790.23"/><path d="M 348.81 790.23 A 21.00 21.00 0 0 0 369.81 790.23"/><line x1="369.81" y1="790.23" x2="685.02" y2="608.25"/><path d="M 685.02 608.25 A 21.00 21.00 0 0 0 695.52 590.06"/><line x1="695.52" y1="590.06" x2="695.52" y2="226.08"/><path d="M 695.52 226.08 A 21.00 21.00 0 0 0 685.02 207.90"/><line x1="685.02" y1="207.90" x2="369.81" y2="25.91"/><path d="M 369.81 25.91 A 21.00 21.00 0 0 0 348.81 25.91"/><line x1="348.81" y1="25.91" x2="33.60" y2="207.90"/><path d="M 33.60 207.90 A 21.00 21.00 0 0 0 23.10 226.09"/><line x1="79.31" y1="439.07" x2="79.31" y2="377.07"/><path d="M 74.31 444.07 A 5.00 5.00 0 0 0 79.31 439.07"/><line x1="74.31" y1="444.07" x2="62.31" y2="444.07"/><path d="M 57.31 439.07 A 5.00 5.00 0 0 0 62.31 444.07"/><line x1="57.31" y1="439.07" x2="57.31" y2="377.07"/><path d="M 62.31 372.07 A 5.00 5.00 0 0 0 57.31 377.07"/><line x1="74.31" y1="372.07" x2="62.31" y2="372.07"/><path d="M 79.31 377.07 A 5.00 5.00 0 0 0 74.31 372.07"/></g></svg>